<?xml version="1.0" standalone="no"?>
<!DOCTYPE svg PUBLIC "-//W3C//DTD SVG 20010904//EN"
 "http://www.w3.org/TR/2001/REC-SVG-20010904/DTD/svg10.dtd">
<svg version="1.0" xmlns="http://www.w3.org/2000/svg"
 width="625.000000pt" height="625.000000pt" viewBox="0 0 625.000000 625.000000"
 preserveAspectRatio="xMidYMid meet">
<metadata>
Created by potrace 1.11, written by Peter Selinger 2001-2013
</metadata>
<g transform="translate(0.000000,625.000000) scale(0.100000,-0.100000)"
fill="#000000" stroke="none">
<path d="M2879 6245 c-2 -1 -42 -6 -89 -9 -47 -4 -96 -9 -110 -10 -81 -11
-121 -17 -175 -27 -33 -5 -78 -12 -100 -15 -21 -3 -42 -7 -45 -9 -4 -2 -42
-11 -86 -20 -43 -9 -83 -20 -89 -23 -5 -4 -18 -8 -28 -9 -27 -5 -220 -70 -290
-99 -164 -67 -388 -195 -501 -286 -44 -35 -158 -150 -186 -186 -14 -18 -30
-38 -35 -45 -37 -43 -108 -183 -125 -248 -19 -68 -21 -80 -27 -148 -5 -61 -8
-68 -52 -110 -25 -25 -62 -66 -81 -90 -19 -24 -41 -49 -47 -56 -7 -8 -13 -18
-13 -23 0 -6 -4 -12 -8 -14 -15 -6 -107 -171 -144 -258 -30 -71 -57 -176 -82
-320 -3 -14 -5 -25 -6 -25 -1 0 -3 -16 -4 -35 -2 -19 -7 -66 -12 -105 -17
-142 -9 -553 12 -645 3 -14 10 -43 14 -65 5 -22 14 -56 20 -75 14 -50 13 -67
-8 -67 -26 1 -112 -26 -112 -35 0 -4 -7 -8 -16 -8 -15 0 -90 -41 -129 -70 -46
-35 -127 -123 -159 -172 -18 -29 -46 -87 -61 -128 -24 -64 -28 -91 -29 -185 0
-60 2 -123 6 -138 30 -123 82 -219 163 -302 47 -49 135 -120 135 -111 0 4 12
-1 28 -12 93 -66 325 -100 452 -67 28 7 53 13 56 13 9 0 68 23 97 39 16 8 30
13 31 11 2 -1 6 -66 10 -143 7 -148 10 -180 26 -260 36 -183 57 -260 106 -381
35 -89 103 -235 114 -244 3 -3 16 -25 29 -50 13 -25 30 -52 37 -61 8 -8 14
-20 14 -26 0 -6 3 -13 8 -15 4 -2 28 -32 54 -68 70 -99 172 -210 292 -317 32
-29 60 -53 62 -53 3 0 15 -9 27 -21 62 -59 415 -263 470 -273 7 -1 39 -12 72
-25 33 -13 67 -25 75 -27 8 -2 58 -15 110 -29 52 -14 111 -28 130 -31 19 -3
42 -7 50 -9 104 -27 675 -27 799 0 14 3 37 7 51 10 73 14 134 28 190 45 25 7
50 14 55 16 66 15 273 107 390 173 45 26 173 110 192 126 7 5 18 15 25 20 162
128 291 261 397 410 190 266 289 504 356 854 14 72 23 188 24 315 1 53 4 66
14 59 11 -9 109 -48 114 -46 2 1 25 -5 53 -12 64 -17 206 -17 270 0 28 7 51
13 53 13 13 -2 87 27 87 34 0 5 4 7 8 4 10 -6 121 65 170 108 58 53 118 138
156 226 50 112 57 294 16 415 -66 197 -217 345 -420 412 l-77 25 24 96 c23 97
26 118 40 247 9 84 8 366 -1 450 -10 95 -27 218 -32 245 -3 14 -10 45 -14 70
-5 25 -12 59 -15 75 -30 150 -169 398 -311 554 l-21 23 60 96 c95 152 182 350
203 464 11 61 12 170 2 199 -15 45 -60 54 -138 28 -36 -11 -81 -29 -100 -39
-99 -51 -207 -88 -273 -95 -45 -5 -137 24 -137 42 0 4 -17 19 -38 33 -20 14
-39 27 -42 31 -4 5 -85 59 -145 96 -47 30 -261 136 -340 168 -82 34 -235 88
-300 105 -16 5 -55 15 -85 23 -30 8 -69 17 -87 20 -17 3 -35 7 -40 10 -4 3
-30 8 -57 11 -27 4 -52 9 -55 10 -3 2 -26 7 -51 10 -25 3 -56 8 -70 10 -26 5
-101 14 -180 22 -55 6 -567 14 -571 9z"/>
</g>
</svg>
