<?xml version="1.0" encoding="UTF-8"?>
<svg width="611px" height="625px" viewBox="0 0 611 625" version="1.1" xmlns="http://www.w3.org/2000/svg" xmlns:xlink="http://www.w3.org/1999/xlink">
    <!-- Generator: Sketch 51.2 (57519) - http://www.bohemiancoding.com/sketch -->
    <title>favicon</title>
    <desc>Created with Sketch.</desc>
    <defs></defs>
    <g id="Page-1" stroke="none" stroke-width="1" fill="none" fill-rule="evenodd">
        <g id="favicon" fill-rule="nonzero">
            <g id="Clipped">
                <g id="Group">
                    <rect id="face-base" fill="#F9D5AA" x="98" y="124" width="416" height="501" rx="200"></rect>
                    <path d="M161.540854,483 C161.540854,514.112748 228.247138,546 307.5,546 C386.752862,546 448.997866,514.112748 448.997866,483" id="mouth" fill="#BA6767"></path>
                    <path d="M77.9798035,336.545609 C106.423002,351.469534 193.27591,271.78577 210.267526,196.589619 C227.259142,121.393468 212.816147,109.105798 184.372948,94.1818724 C171.346382,87.3469348 140.213063,87.9218776 123.945302,97.5478821 C108.945984,106.42332 88.0675886,119.31029 71.7950122,143.316673 C64.9766261,153.375608 56.1370719,169.442647 53.4175952,181.477651 C36.425979,256.673802 49.5366047,321.621684 77.9798035,336.545609 Z" id="left-hair" fill="#8A664E"></path>
                    <path d="M426.12781,336.942394 C454.571008,351.866319 541.423916,272.182555 558.415532,196.986404 C575.407148,121.790254 560.964153,109.502583 532.520954,94.5786578 C519.494388,87.7437202 488.361069,88.318663 472.093308,97.9446675 C457.09399,106.820105 436.215595,119.707076 419.943018,143.713458 C413.124632,153.772393 404.285078,169.839432 401.565601,181.874437 C384.573985,257.070587 397.684611,322.018469 426.12781,336.942394 Z" id="right-hair" fill="#876648" transform="translate(479.846973, 214.379970) scale(-1, 1) translate(-479.846973, -214.379970) "></path>
                    <g id="left-ear" transform="translate(0.000000, 301.000000)">
                        <ellipse id="Oval" fill="#F9D5AA" cx="65.5" cy="63" rx="65.5" ry="63"></ellipse>
                        <circle id="left-earring" fill="#393939" cx="60.5" cy="101.5" r="16.5"></circle>
                    </g>
                    <g id="right-ear" transform="translate(545.500000, 364.000000) scale(-1, 1) translate(-545.500000, -364.000000) translate(480.000000, 301.000000)">
                        <ellipse id="Oval" fill="#F9D5AA" cx="65.5" cy="63" rx="65.5" ry="63"></ellipse>
                        <circle id="right-earring" fill="#393939" cx="60.5" cy="101.5" r="16.5"></circle>
                    </g>
                    <rect id="left-eye" fill="#393939" x="164" y="278" width="64" height="120" rx="32"></rect>
                    <rect id="right-eye" fill="#393939" x="385" y="278" width="64" height="120" rx="32"></rect>
                    <path d="M304,238 C355.535642,238 414.97282,227.669668 458.655402,194.506487 C514.215738,152.325888 552.933963,93.4328518 552.933963,56.6390722 C552.933963,24.0122041 507.333445,74.7730542 487.417292,56.6390722 C473.539271,44.0029087 452.746344,32.9333095 431.722299,24.0122041 C418.831783,18.5423885 404.792928,13.8802581 389.844692,10.1599449 C363.601619,3.62857588 334.555725,0 304,0 C186.915633,0 92,53.2781148 92,119 C92,184.721885 186.915633,238 304,238 Z" id="top-hair" fill="#785741"></path>
                </g>
            </g>
        </g>
    </g>
</svg>