<?xml version="1.0" encoding="UTF-8"?>
<svg width="930px" height="930px" viewBox="0 0 930 930" version="1.1" xmlns="http://www.w3.org/2000/svg" xmlns:xlink="http://www.w3.org/1999/xlink">
    <!-- Generator: Sketch 51.2 (57519) - http://www.bohemiancoding.com/sketch -->
    <title>me-santa</title>
    <desc>Created with Sketch.</desc>
    <defs>
        <circle id="path-1" cx="465" cy="465" r="465"></circle>
    </defs>
    <g id="Page-1" stroke="none" stroke-width="1" fill="none" fill-rule="evenodd">
        <g id="me-santa" transform="translate(-763.000000, -400.000000)">
            <g id="Mask" transform="translate(763.000000, 400.000000)" fill="#FFFFFF" fill-rule="nonzero">
                <circle id="path-1" cx="465" cy="465" r="465"></circle>
            </g>
            <g id="Clipped" transform="translate(763.000000, 400.000000)">
                <mask id="mask-2" fill="white">
                    <use xlink:href="#path-1"></use>
                </mask>
                <g id="path-1"></g>
                <g id="Group" mask="url(#mask-2)">
                    <g transform="translate(160.000000, 58.000000)">
                        <path d="M253.072471,641.769349 C283.678138,644.66453 301.320648,646.11212 306,646.11212 C310.679352,646.11212 328.321862,644.66453 358.927529,641.769349 C432.329856,634.825765 497.463086,688.701221 504.40667,762.103548 C504.802003,766.282712 505,770.478198 505,774.676019 L505,898.993775 C505,953.542916 498.80389,975.948895 487.168892,997.704451 C475.533894,1019.46001 458.460006,1036.53389 436.704451,1048.16889 C414.948895,1059.80389 392.542916,1066 337.993775,1066 L274.006225,1066 C219.457084,1066 197.051105,1059.80389 175.295549,1048.16889 C153.539994,1036.53389 136.466106,1019.46001 124.831108,997.704451 C113.19611,975.948895 107,953.542916 107,898.993775 L107,774.676018 L107.000001,774.676018 C107.000001,700.946005 166.769986,641.176019 240.5,641.176019 C244.697821,641.176019 248.893307,641.374016 253.072471,641.769349 Z" id="Shirt" fill="#8BBF8C" fill-rule="nonzero"></path>
                        <rect id="neck" fill="#DBB589" fill-rule="nonzero" x="246" y="508" width="120" height="206" rx="60"></rect>
                        <rect id="face-base" fill="#F9D5AA" fill-rule="nonzero" x="98" y="124" width="416" height="501" rx="200"></rect>
                        <path d="M161.540854,483 C161.540854,514.112748 228.247138,546 307.5,546 C386.752862,546 448.997866,514.112748 448.997866,483" id="mouth" fill="#BA6767" fill-rule="nonzero"></path>
                        <path d="M77.9798035,336.545609 C106.423002,351.469534 193.27591,271.78577 210.267526,196.589619 C227.259142,121.393468 212.816147,109.105798 184.372948,94.1818724 C171.346382,87.3469348 140.213063,87.9218776 123.945302,97.5478821 C108.945984,106.42332 88.0675886,119.31029 71.7950122,143.316673 C64.9766261,153.375608 56.1370719,169.442647 53.4175952,181.477651 C36.425979,256.673802 49.5366047,321.621684 77.9798035,336.545609 Z" id="left-hair" fill="#8A664E" fill-rule="nonzero"></path>
                        <path d="M426.12781,336.942394 C454.571008,351.866319 541.423916,272.182555 558.415532,196.986404 C575.407148,121.790254 560.964153,109.502583 532.520954,94.5786578 C519.494388,87.7437202 488.361069,88.318663 472.093308,97.9446675 C457.09399,106.820105 436.215595,119.707076 419.943018,143.713458 C413.124632,153.772393 404.285078,169.839432 401.565601,181.874437 C384.573985,257.070587 397.684611,322.018469 426.12781,336.942394 Z" id="right-hair" fill="#876648" fill-rule="nonzero" transform="translate(479.846973, 214.379970) scale(-1, 1) translate(-479.846973, -214.379970) "></path>
                        <g id="left-ear" stroke-width="1" fill="none" fill-rule="evenodd" transform="translate(0.000000, 301.000000)">
                            <ellipse id="Oval" fill="#F9D5AA" fill-rule="nonzero" cx="65.5" cy="63" rx="65.5" ry="63"></ellipse>
                            <circle id="left-earring" fill="#393939" fill-rule="nonzero" cx="60.5" cy="101.5" r="16.5"></circle>
                        </g>
                        <rect id="left-eye" fill="#393939" fill-rule="nonzero" x="164" y="278" width="64" height="120" rx="32"></rect>
                        <rect id="right-eye" fill="#393939" fill-rule="nonzero" x="385" y="278" width="64" height="120" rx="32"></rect>
                        <path d="M304,238 C355.535642,238 414.97282,227.669668 458.655402,194.506487 C514.215738,152.325888 552.933963,93.4328518 552.933963,56.6390722 C552.933963,24.0122041 507.333445,74.7730542 487.417292,56.6390722 C473.539271,44.0029087 452.746344,32.9333095 431.722299,24.0122041 C418.831783,18.5423885 404.792928,13.8802581 389.844692,10.1599449 C363.601619,3.62857588 334.555725,0 304,0 C186.915633,0 92,53.2781148 92,119 C92,184.721885 186.915633,238 304,238 Z" id="top-hair" fill="#785741" fill-rule="nonzero"></path>
                    </g>
                </g>
            </g>
            <g id="right-ear" transform="translate(1468.500000, 822.000000) scale(-1, 1) translate(-1468.500000, -822.000000) translate(1403.000000, 759.000000)" fill-rule="nonzero">
                <ellipse id="Oval" fill="#F9D5AA" cx="65.5" cy="63" rx="65.5" ry="63"></ellipse>
                <circle id="right-earring" fill="#393939" cx="60.5" cy="101.5" r="16.5"></circle>
            </g>
            <g id="hat" transform="translate(933.000000, 414.000000)">
                <path d="M35.0409972,245.853132 C18.1337878,195.100112 39.0779026,141.017136 97.8733416,83.6042043 C186.0665,-2.51519282 282.673223,0.637091094 317.179857,0.637091094 C351.686491,0.637091094 457.959665,12.8221255 526.634935,76.3005201 C572.418449,118.61945 583.220434,168.723029 559.040889,226.611256 L415.908326,245.853132 L35.0409972,266.207831 L35.0409972,245.853132 Z" id="hat-shape" fill="#E74C3C"></path>
                <path d="M45.358343,210.059305 C21.8656878,214.875332 5.00000018,235.549256 5.00000018,259.530477 L5,270.46041 C5,272.922971 5.2258775,275.380341 5.6747938,277.801637 C9.72924086,299.669899 30.7437512,314.110859 52.6120243,310.056442 C135.633411,294.664006 218.476179,286.967167 301.136679,286.967167 C382.518743,286.967167 461.399752,294.427791 537.775521,309.350742 C540.278864,309.839868 542.823585,310.086145 545.374265,310.086145 C567.258954,310.086145 585,292.345099 585,270.46041 L585,258.823387 C585,235.071551 568.448286,214.529893 545.23979,209.478611 C464.13201,191.825669 382.766286,183 301.136679,183 C218.62155,183 133.363071,192.018217 45.358343,210.059305 Z" id="hat-bottom" stroke="#C4E2E3" stroke-width="10" fill="#FFFFFF"></path>
                <path d="M543.37679,93.9450235 C586.839035,147.288104 604.415745,200.557401 610.022175,226.226331 C621.267586,277.713225 622.915616,362.593777 616.213354,372.198033 C607.871686,384.151536 591.43245,375.030601 590.454376,372.198033 C574.261891,325.303485 581.066964,330.889227 562.364237,294.319617 C501.983542,176.256706 404.219634,189.255987 383.53365,159.10705 C365.430965,132.72316 499.914545,40.6019434 543.37679,93.9450235 Z" id="Path-2" fill="#E74C3C"></path>
                <circle id="hat-ball" stroke="#C4E2E3" stroke-width="10" fill="#FFFFFF" cx="608.5" cy="400.5" r="54.5"></circle>
                <path d="M461.527834,246.439744 C457.205089,208.416251 392.658367,127.663871 367.678113,117.001816 L461.527834,246.439744 Z" id="Path-3" fill-opacity="0.15" fill="#000000" transform="translate(414.602973, 181.720780) rotate(-33.000000) translate(-414.602973, -181.720780) "></path>
            </g>
        </g>
    </g>
</svg>