<?xml version="1.0" encoding="UTF-8"?>
<svg width="207px" height="181px" viewBox="0 0 207 181" version="1.1" xmlns="http://www.w3.org/2000/svg" xmlns:xlink="http://www.w3.org/1999/xlink">
    <!-- Generator: Sketch 47.1 (45422) - http://www.bohemiancoding.com/sketch -->
    <title>Untitled 2</title>
    <desc>Created with Sketch.</desc>
    <defs></defs>
    <g id="Page-1" stroke="none" stroke-width="1" fill="none" fill-rule="evenodd">
        <g id="icon">
            <path d="M147.824301,84.0041894 C140.895828,84.1226992 133.969312,84.5446677 127.040448,84.6858381 C114.982281,84.9249793 102.920591,85.2320057 90.860467,85.1795489 C79.9209582,85.134035 68.9751847,84.2414984 58.0509464,84.4995394 C50.8891097,84.6707954 43.9813888,86.7123667 38.3454216,91.8126308 C28.6083621,100.623054 26.0883479,112.062488 27.2700451,124.411815 C29.1494839,144.041834 36.345777,154.737616 55.770169,160.152235 C71.2293366,164.462948 87.0577357,165.174971 102.951132,164.948944 C108.094138,164.948944 113.23871,165.080761 118.375843,164.920787 C130.829866,164.528904 143.106126,162.792431 154.944242,158.788359 C165.560722,155.198831 173.345906,148.47906 177.039786,137.414152 C179.656905,129.575722 180.676109,121.611067 179.540223,113.448736 C177.800567,100.952356 166.545469,83.6914737 147.824301,84.0041894 Z M67.9716426,141.857068 C59.3223084,141.857068 52.3096522,133.221853 52.3096522,122.571489 C52.3096522,111.921318 59.3223084,103.285911 67.9716426,103.285911 C76.6209768,103.285911 83.633633,111.921318 83.633633,122.571489 C83.633633,133.221853 76.6209768,141.857068 67.9716426,141.857068 Z M142.366097,141.857068 C133.716763,141.857068 126.704107,133.221853 126.704107,122.571489 C126.704107,111.921318 133.716763,103.285911 142.366097,103.285911 C151.015431,103.285911 158.028087,111.921318 158.028087,122.571489 C158.028087,133.221853 151.015431,141.857068 142.366097,141.857068 Z" id="Shape"></path>
            <path d="M195.101323,57.5254062 C192.658137,54.1729745 190.850203,51.3160259 191.326057,46.40707 C191.9882,39.5391191 190.98154,32.414971 190.039575,25.4936619 C188.852083,16.7616723 186.606487,8.25157125 183.04635,0 C174.245191,1.88124162 165.527433,3.39198865 157.750081,7.87019121 C149.502721,12.6236405 141.48374,17.7981241 133.314325,22.6919181 C132.385611,23.2462993 131.061325,23.5518699 130.016473,23.3753698 C112.511196,20.3266621 95.01917,20.4405707 77.5025913,23.291785 C76.1744086,23.5098831 74.5091138,23.0638706 73.3181143,22.3579676 C68.9886595,19.7722809 64.8840761,16.7846095 60.5320173,14.2409096 C49.1754316,7.58911295 37.4797851,1.77860723 24.0011469,0.0605503992 C23.618437,0.896107031 23.3008112,1.49752897 23.0646378,2.12616458 C19.0076008,13.0314567 16.5928649,24.3282368 15.8278348,35.9682978 C15.5480123,40.1976897 15.2342837,44.5258284 15.8278348,48.6735793 C16.1645572,51.0349477 15.8239375,52.4434491 14.4712022,54.1291411 C9.74422795,60.0080697 6.05626052,66.4888091 3.65477524,73.7801268 C-0.921765128,87.6734791 -0.632589198,101.830804 1.43762986,116.034003 C3.12007257,127.67212 6.05041465,138.909808 12.4711336,148.955537 C25.3180276,169.056326 44.5186079,177.892991 66.6160139,179.770345 C85.4284281,181.370508 104.419726,180.935867 123.333469,180.972022 C136.832762,180.996417 150.195652,179.521534 163.002405,174.519566 C182.853826,166.770767 195.991844,152.550851 202.243033,131.593998 C205.881505,119.401499 207.341025,106.910817 206.933763,94.1770585 C206.503896,80.7545998 202.987407,68.3568326 195.101323,57.5254062 Z M176.970148,137.645539 C173.293482,148.798087 165.544581,155.571081 154.977578,159.18904 C143.194633,163.224827 130.975586,164.975054 118.579604,165.370041 C113.466412,165.531282 108.345815,165.398421 103.226778,165.398421 C87.4074515,165.626238 71.6528195,164.908575 56.265698,160.563719 C36.9318318,155.106214 29.7690765,144.325715 27.8983967,124.540216 C26.7222067,112.093076 29.2304766,100.563036 38.9221573,91.6828291 C44.5318585,86.5421683 51.4073865,84.4844266 58.535846,84.3118142 C69.4091728,84.0517294 80.3039344,84.9513353 91.1924605,84.9972098 C103.196379,85.050082 115.201857,84.7406238 127.203827,84.4995885 C134.100401,84.3572999 140.994635,83.9319893 147.890819,83.8125407 C166.524739,83.4973482 177.727383,100.894945 179.458931,113.490303 C180.589524,121.717285 179.575069,129.745024 176.970148,137.645539 Z" id="Shape" fill="#F6F6F6" fill-rule="nonzero"></path>
            <ellipse id="Oval" fill="#F6F6F6" fill-rule="nonzero" cx="68.5" cy="122.5" rx="15.5" ry="19.5"></ellipse>
            <ellipse id="Oval" fill="#F6F6F6" fill-rule="nonzero" cx="142.5" cy="122.5" rx="15.5" ry="19.5"></ellipse>
        </g>
    </g>
</svg>