<?xml version="1.0" encoding="UTF-8"?>
<svg width="181px" height="181px" viewBox="0 0 181 181" version="1.1" xmlns="http://www.w3.org/2000/svg" xmlns:xlink="http://www.w3.org/1999/xlink">
    <!-- Generator: Sketch 47.1 (45422) - http://www.bohemiancoding.com/sketch -->
    <title>Linkedin</title>
    <desc>Created with Sketch.</desc>
    <defs></defs>
    <g id="Page-1" stroke="none" stroke-width="1" fill="none" fill-rule="evenodd">
        <g id="Linkedin" fill-rule="nonzero" fill="#F6F6F6">
            <path d="M100.327541,75.1803056 C100.327541,70.9056484 100.255023,66.6284249 100.35996,62.3563341 C100.407737,60.409342 99.7849393,59.6779367 97.770659,59.6924793 C87.2923062,59.7677584 76.8131002,59.7634812 66.3338942,59.6941902 C64.4134601,59.6813585 63.6959634,60.2057461 63.699376,62.2605243 C63.7531242,100.971108 63.7522711,139.681691 63.7010822,178.392275 C63.6976697,180.403426 64.3383831,181.00737 66.3006215,180.994538 C77.2618556,180.922681 88.2239428,180.916692 99.1851769,180.998815 C101.178982,181.014213 101.738646,180.396582 101.730968,178.405962 C101.659304,160.019034 101.636269,141.630395 101.726702,123.243466 C101.748884,118.702766 102.02701,114.139824 102.563639,109.63163 C103.148898,104.710257 104.720395,100.057493 108.169669,96.3038016 C112.597503,91.4850816 118.34942,90.3986668 124.559478,90.5150073 C133.2266,90.6775418 138.627874,94.7263616 141.103707,103.045561 C142.699945,108.406633 142.827917,113.919119 142.830477,119.443581 C142.840715,139.00589 142.832183,158.569055 142.838155,178.131364 C142.839008,180.86451 142.926882,180.955187 145.606618,180.956898 C156.292285,180.965453 166.977953,180.962031 177.66362,180.959465 C180.99516,180.959465 181.012223,180.954332 180.998572,177.661725 C180.901314,153.959919 180.839034,130.257257 180.669258,106.555451 C180.617216,99.2944363 179.645481,92.1146889 177.662767,85.1154404 C174.626417,74.3992846 168.906918,65.6592061 158.402118,61.0945532 C147.411024,56.3186054 135.900363,55.4546062 124.263436,58.3169242 C114.220188,60.7875341 106.281655,66.4394572 100.327541,75.1803056 Z M40.873425,120.455572 C40.873425,101.101991 40.8392991,81.7492655 40.9229075,62.39654 C40.931439,60.2964233 40.3726276,59.6676714 38.2790046,59.6847803 C27.3885817,59.774602 16.4964526,59.7686139 5.60602967,59.6890575 C3.56530178,59.6736595 2.87766521,60.2468075 2.88022465,62.3802865 C2.9390918,101.017302 2.9390918,139.653462 2.8810778,178.290477 C2.87766521,180.404281 3.52605701,181.015069 5.58981988,180.998815 C16.4802428,180.915837 27.3715188,180.914982 38.2627948,180.999671 C40.3274108,181.015924 40.9339984,180.435077 40.9246138,178.306731 C40.8375928,159.023296 40.873425,139.739006 40.873425,120.455572 Z M0,22.0375145 C0.00255944134,34.1044174 9.85811488,44.2089302 21.9113773,44.0883125 C34.3477027,43.9634176 43.9985028,34.5706348 43.9754679,22.0127066 C43.9524329,9.23578451 34.1284439,-0.07059839 21.8883423,0.000403520211 C8.83519149,0.0765380986 0.023034972,10.5514585 0,22.0375145 Z" id="icon"></path>
        </g>
    </g>
</svg>