<?xml version="1.0" encoding="UTF-8"?>
<svg width="332px" height="251px" viewBox="0 0 332 251" version="1.1" xmlns="http://www.w3.org/2000/svg" xmlns:xlink="http://www.w3.org/1999/xlink">
    <!-- Generator: Sketch 47.1 (45422) - http://www.bohemiancoding.com/sketch -->
    <title>mail</title>
    <desc>Created with Sketch.</desc>
    <defs></defs>
    <g id="Page-1" stroke="none" stroke-width="1" fill="none" fill-rule="evenodd">
        <g id="mail" fill-rule="nonzero" fill="#F6F6F6">
            <path d="M153.5,164.8 L2.2,13.5 C5.9,5.5 13.9,0 23.3,0 L308.8,0 C318.1,0 326.2,5.5 329.9,13.5 L178.5,164.8 C175.2,168.1 170.7,170 166,170 C161.3,170 156.8,168.1 153.5,164.8 Z" id="Shape"></path>
            <path d="M331.9,39.7 L331.9,226.9 C331.9,239.7 321.5,250.1 308.7,250.1 L23.3,250.1 C10.5,250.1 0.1,239.7 0.1,226.9 L0.1,39.7 L139.3,178.9 C146.4,186 155.9,189.9 166,189.9 C176.1,189.9 185.5,186 192.7,178.9 L331.9,39.7 Z" id="Shape"></path>
        </g>
    </g>
</svg>