<?xml version="1.0" encoding="UTF-8"?>
<svg width="930px" height="930px" viewBox="0 0 930 930" version="1.1" xmlns="http://www.w3.org/2000/svg" xmlns:xlink="http://www.w3.org/1999/xlink">
    <!-- Generator: Sketch 47.1 (45422) - http://www.bohemiancoding.com/sketch -->
    <title>me</title>
    <desc>Created with Sketch.</desc>
    <defs>
        <circle id="path-1" cx="465" cy="465" r="465"></circle>
    </defs>
    <g id="Page-1" stroke="none" stroke-width="1" fill="none" fill-rule="evenodd">
        <g id="me">
            <mask id="mask-2" fill="white">
                <use xlink:href="#path-1"></use>
            </mask>
            <use id="Mask" fill="#FFFFFF" xlink:href="#path-1"></use>
            <g mask="url(#mask-2)">
                <g transform="translate(160.000000, 58.000000)">
                    <path d="M253.072471,641.769349 C283.678138,644.66453 301.320648,646.11212 306,646.11212 C310.679352,646.11212 328.321862,644.66453 358.927529,641.769349 L358.927529,641.769349 C432.329856,634.825765 497.463086,688.701221 504.40667,762.103548 C504.802003,766.282712 505,770.478198 505,774.676019 L505,898.993775 C505,953.542916 498.80389,975.948895 487.168892,997.704451 C475.533894,1019.46001 458.460006,1036.53389 436.704451,1048.16889 C414.948895,1059.80389 392.542916,1066 337.993775,1066 L274.006225,1066 C219.457084,1066 197.051105,1059.80389 175.295549,1048.16889 C153.539994,1036.53389 136.466106,1019.46001 124.831108,997.704451 C113.19611,975.948895 107,953.542916 107,898.993775 L107,774.676018 L107.000001,774.676018 C107.000001,700.946005 166.769986,641.176019 240.5,641.176019 C244.697821,641.176019 248.893307,641.374016 253.072471,641.769349 Z" id="Shirt" fill="#F26C4F"></path>
                    <rect id="neck" fill="#DBB589" x="246" y="508" width="120" height="206" rx="60"></rect>
                    <rect id="face-base" fill="#F9D5AA" x="98" y="124" width="416" height="501" rx="200"></rect>
                    <path d="M161.540854,483 C161.540854,514.112748 228.247138,546 307.5,546 L307.5,546 C386.752862,546 448.997866,514.112748 448.997866,483" id="mouth" fill="#BA6767"></path>
                    <path d="M77.9798035,336.545609 C106.423002,351.469534 193.27591,271.78577 210.267526,196.589619 C227.259142,121.393468 212.816147,109.105798 184.372948,94.1818724 C171.346382,87.3469348 140.213063,87.9218776 123.945302,97.5478821 C108.945984,106.42332 88.0675886,119.31029 71.7950122,143.316673 C64.9766261,153.375608 56.1370719,169.442647 53.4175952,181.477651 C36.425979,256.673802 49.5366047,321.621684 77.9798035,336.545609 Z" id="left-hair" fill="#8A664E"></path>
                    <path d="M426.127809,336.942394 C454.571007,351.866319 541.423915,272.182555 558.415531,196.986404 C575.407147,121.790254 560.964152,109.502583 532.520953,94.5786578 C519.494387,87.7437202 488.361068,88.318663 472.093307,97.9446675 C457.093989,106.820105 436.215594,119.707076 419.943017,143.713458 C413.124631,153.772393 404.285077,169.839432 401.5656,181.874437 C384.573984,257.070587 397.68461,322.018469 426.127809,336.942394 Z" id="right-hair" fill="#876648" transform="translate(479.846972, 214.379970) scale(-1, 1) translate(-479.846972, -214.379970) "></path>
                    <g id="left-ear" stroke-width="1" fill="none" transform="translate(0.000000, 301.000000)">
                        <ellipse fill="#F9D5AA" cx="65.5" cy="63" rx="65.5" ry="63"></ellipse>
                        <circle id="left-earring" fill="#393939" cx="60.5" cy="101.5" r="16.5"></circle>
                    </g>
                    <g id="right-ear" stroke-width="1" fill="none" transform="translate(545.500000, 364.000000) scale(-1, 1) translate(-545.500000, -364.000000) translate(480.000000, 301.000000)">
                        <ellipse fill="#F9D5AA" cx="65.5" cy="63" rx="65.5" ry="63"></ellipse>
                        <circle id="right-earring" fill="#393939" cx="60.5" cy="101.5" r="16.5"></circle>
                    </g>
                    <rect id="left-eye" fill="#393939" x="164" y="278" width="64" height="120" rx="32"></rect>
                    <rect id="right-eye" fill="#393939" x="385" y="278" width="64" height="120" rx="32"></rect>
                    <path d="M304,238 C355.535642,238 414.97282,227.669668 458.655402,194.506487 C514.215738,152.325888 552.933963,93.4328518 552.933963,56.6390722 C552.933963,24.0122041 507.333445,74.7730542 487.417292,56.6390722 C473.539271,44.0029087 452.746344,32.9333095 431.722299,24.0122041 C418.831783,18.5423885 404.792928,13.8802581 389.844692,10.1599449 C363.601619,3.62857588 334.555725,0 304,0 C186.915633,0 92,53.2781148 92,119 C92,184.721885 186.915633,238 304,238 Z" id="top-hair" fill="#785741"></path>
                </g>
            </g>
        </g>
    </g>
</svg>