<?xml version="1.0" encoding="UTF-8"?>
<svg width="181px" height="181px" viewBox="0 0 181 181" version="1.1" xmlns="http://www.w3.org/2000/svg" xmlns:xlink="http://www.w3.org/1999/xlink">
    <!-- Generator: Sketch 47.1 (45422) - http://www.bohemiancoding.com/sketch -->
    <title>Icon</title>
    <desc>Created with Sketch.</desc>
    <defs></defs>
    <g id="Page-1" stroke="none" stroke-width="1" fill="none" fill-rule="evenodd">
        <g id="Icon" fill-rule="nonzero" fill="#F6F6F6">
            <g id="Icecream" transform="translate(9.821705, 0.000000)">
                <path d="M86.2955721,6.94453888 C79.7392476,2.53923327 72.0293219,0 63.7790804,0 C44.7578169,0 28.6086141,13.4973337 22.8473453,32.2423232 C24.0954508,32.1054921 25.3616515,32.0354119 26.642889,32.0354119 C36.3848167,32.0354119 45.2574143,36.0870054 51.9161965,42.7266664 C58.6661256,26.4642186 71.0220114,13.5596677 86.2955721,6.94453888 Z" id="Combined-Shape"></path>
                <path d="M0.156661381,75.9099978 C0.0531207676,74.8805955 0,73.8349973 0,72.7760988 C0,56.814234 12.0704328,43.8745859 26.9600663,43.8745859 C35.5243095,43.8745859 43.1558657,48.1554599 48.0943218,54.8300241 C46.9267085,60.0747583 46.3078785,65.5534964 46.3078785,71.189848 C46.3078785,72.7762855 46.3569039,74.3502368 46.4533927,75.9099978 L0.156661381,75.9099978 Z" id="Combined-Shape"></path>
                <path d="M56.6199797,75.9099978 C56.5123648,74.4018416 56.4575505,72.8775285 56.4575505,71.3392542 C56.4575505,39.2475136 80.3144061,13.232018 109.743328,13.232018 C139.172251,13.232018 163.029106,39.2475136 163.029106,71.3392542 C163.029106,72.8775285 162.974292,74.4018416 162.866677,75.9099978 L56.6199797,75.9099978 Z" id="Combined-Shape"></path>
            </g>
            <path d="M78.5749783,112.080909 L78.5749783,135.441754 L78.5749783,135.441754 C78.5749783,139.313949 75.6930777,142.452984 72.1380719,142.452984 C68.5830665,142.452984 65.7011657,139.313949 65.7011657,135.441754 L65.7011657,106.294738 L65.7011657,93.6779221 L65.6949308,93.6779221 C65.5475161,89.9339018 62.8037375,86.9205468 59.3701467,86.7093127 C59.3843221,86.7053169 59.3985165,86.7013721 59.4127297,86.697479 L58.558697,86.697479 C58.5733576,86.7012884 58.587999,86.705152 58.6026209,86.7090689 C55.1671702,86.9182178 52.421328,89.9324557 52.273856,93.6779221 L52.2676215,93.6779221 L52.2676215,112.080909 L52.3035615,112.080909 C51.9403566,115.614277 49.1884492,118.361099 45.8475399,118.361099 C42.2595213,118.361099 39.3508576,115.192915 39.3508576,111.284759 L39.3508576,105.914494 L39.3508576,93.4279105 L39.3448275,93.4279105 C39.2006408,89.777428 36.4884205,86.847361 33.1151008,86.7030501 C33.1221903,86.7011808 33.1292842,86.6993235 33.1363827,86.697479 L6.32126293,86.697479 L6.32126293,86.697479 C5.58221722,86.697479 4.8488997,86.8386809 4.15464578,87.1146652 C0.875990256,88.4180191 -0.811857668,92.3696162 0.384731943,95.9408048 L0.384731943,95.9408048 L24.3383109,167.429605 C27.0687496,175.578524 34.1838176,181 42.1479039,181 L42.1479039,181 L138.853816,181 C146.817902,181 153.93297,175.578524 156.663409,167.429605 L156.663409,167.429605 L180.616988,95.9408048 C180.870365,95.1846076 181,94.3858608 181,93.5808745 C181,89.7792805 178.170644,86.697479 174.680457,86.697479 L174.680457,86.697479 L84.8634142,86.697479 C84.8765617,86.7010804 84.8896938,86.7047257 84.9028089,86.7084156 C81.4622669,86.9118428 78.7107692,89.9284941 78.563142,93.6779221 L78.5569069,93.6779221 L78.5569069,112.080909 L78.5749783,112.080909 Z" id="Combined-Shape-Copy"></path>
        </g>
    </g>
</svg>